<svg xmlns="http://www.w3.org/2000/svg" viewBox="0 0 1920 184.42">
  <defs>
    <style>
      .cls-1 {
        fill: #f5ae3e;
        opacity: 0.7;
      }
    </style>
  </defs>
  <title>Asset 1</title>
  <g id="Layer_2" data-name="Layer 2">
    <g id="Layer_1-2" data-name="Layer 1">
      <path class="cls-1" d="M1920,180.14V21.81a228.78,228.78,0,0,0-79.88,5.7c-37.81,9.71-46.52,22.83-82.74,37.09-58.23,22.93-111.17,18.72-131.23,17.12-9.9-.79-24.54-2.46-114.11-31.38-99.51-32.13-111.34-39.71-148.36-45.65-53-8.49-94.65-3.54-122.67,0-48.25,6.1-72.61,16.42-262.47,94.15-67.55,27.65-103.49,42-156.91,45.64-39.56,2.71-70.31-1.71-97-5.7-76-11.36-134.51-35.6-185.44-57.06C471.1,53,466.53,43.54,427.93,36.07c-48.18-9.31-86.26-3.27-122.67,2.86C227.68,52,199,74.91,74.18,116,42.68,126.31,16.7,134,0,138.78v42.79l1920,2.85v-6"/>
    </g>
  </g>
</svg>
