<svg xmlns="http://www.w3.org/2000/svg" viewBox="0 0 1920 219.4">
  <defs>
    <style>
      .cls-1 {
        fill: #e74565;
      }
    </style>
  </defs>
  <title>Asset 2</title>
  <g id="Layer_2" data-name="Layer 2">
    <g id="Layer_1-2" data-name="Layer 1">
      <path class="cls-1" d="M0,145.33c28.59-12.18,72.75-32,125.34-59.82,79.57-42.15,80.94-51.13,111.1-57C299.84,16.25,359.1,43.27,433,77c60.91,27.78,51.47,33.6,79.76,39.88C582.64,132.36,652,99.43,729.26,62.72c42-20,64.26-35,108.25-42.73,49-8.63,80.52-.35,91.15,2.85,31.48,9.47,49.78,25.43,65.52,37,57.48,42.33,132.14,64.15,182.32,65.52,27.45.75,31-5.06,182.31-68.37,124-51.87,141.8-56.44,168.07-57,65.42-1.31,123.08,23.7,153.83,37,55,23.86,65.47,41,114,57,50,16.45,95.14,16.63,125.34,14.24V219.4H0Z"/>
    </g>
  </g>
</svg>
